<svg xmlns="http://www.w3.org/2000/svg" fill="none" viewBox="0 0 200 200" width="400" height="400" xmlns:v="https://vecta.io/nano"><g clip-path="url(#B)"><mask id="A" width="200" height="200" x="0" y="0" maskUnits="userSpaceOnUse" mask-type="alpha"><path fill="#fff" d="M199.98 102H.02a100.017 100.017 0 0 0 3.393 24h193.174a100.028 100.028 0 0 0 3.393-24zm-4.558 28H4.578a99.448 99.448 0 0 0 8.8 20h173.244a99.45 99.45 0 0 0 8.8-20zm-11.241 24H15.819a100.474 100.474 0 0 0 12.767 16h142.828a100.431 100.431 0 0 0 12.767-16zm-16.919 20H32.738a100.267 100.267 0 0 0 19.724 14h95.076a100.289 100.289 0 0 0 19.724-14zm-28.005 18H60.743c12.052 5.15 25.322 8 39.257 8s27.205-2.85 39.257-8zm60.723-94H.02a99.753 99.753 0 0 1 5.553-31h188.854a99.723 99.723 0 0 1 5.553 31zm-7.048-35C178.223 26.087 142.158 0 100 0S21.777 26.087 7.068 63h185.864z"/></mask><g mask="url(#A)"><path fill="#fff" d="M200 0H0v200h200V0z"/><path fill="#faff02" fill-opacity=".33" d="M200 0H0v200h200V0z"/><g filter="url(#C)"><ellipse cx="42.046" cy="157.679" fill="#ffc700" rx="73.46" ry="65.777" transform="rotate(326.125 42.046 157.679)"/><path fill="#ffe500" d="M110 32H18v68h92V32z"/><path fill="#ff001f" d="M133 0H17v98h116V0z"/><path fill="#18a0fb" d="M176 73H50v156h126V73z"/><path fill="#ff00d6" d="M213 44H83v101h130V44z"/></g></g></g><defs><clipPath id="B"><path fill="#fff" d="M0 0h200v200H0z"/></clipPath><filter id="C" width="402.127" height="389" x="-109.127" y="-80" color-interpolation-filters="sRGB" filterUnits="userSpaceOnUse"><feFlood flood-opacity="0"/><feBlend in="SourceGraphic"/><feGaussianBlur stdDeviation="40"/></filter></defs></svg>